PathFileType	4	(X/Y/Z)	imu.trc
DataRate	CameraRate	NumFrames	NumMarkers	Units	OrigDataRate	OrigDataStartFrame	OrigNumFrames
60	60	101	2	mm	60	1	1033
Frame#	Time	thigh calf
X1	Y1	Z1	X2	Y2	Z2

1	0	6.14434	4.93288	4.74043	0.0792169	4.959	4.86441	
2	0.01	6.14393	4.9324	4.74009	0.0796759	4.95873	4.86499	
3	0.02	6.14319	4.93205	4.73949	0.0796759	4.95873	4.86499	
4	0.03	6.14237	4.93175	4.73883	0.0796759	4.95873	4.86499	
5	0.04	6.14212	4.93161	4.73864	0.0801705	4.95753	4.86638	
6	0.05	6.14219	4.93117	4.73872	0.0808759	4.95725	4.86736	
7	0.06	6.14198	4.93085	4.73853	0.0814374	4.95692	4.86829	
8	0.07	6.14195	4.93046	4.73852	0.0817506	4.95657	4.86895	
9	0.08	6.14194	4.93025	4.73851	0.0819873	4.95625	4.86938	
10	0.09	6.14201	4.92981	4.73851	0.0825021	4.9557	4.87033	
11	0.1	6.14191	4.92976	4.73843	0.0827911	4.95542	4.87076	
12	0.11	6.14193	4.92975	4.73848	0.0832296	4.95513	4.87127	
13	0.12	6.14194	4.92983	4.73846	0.0836888	4.9548	4.87187	
14	0.13	6.14131	4.93001	4.73766	0.0839211	4.9544	4.87231	
15	0.14	6.14054	4.93018	4.73669	0.0846499	4.95374	4.87326	
16	0.15	6.13959	4.93036	4.73559	0.0851116	4.95351	4.87378	
17	0.16	6.13877	4.93054	4.73453	0.0853288	4.95333	4.87406	
18	0.17	6.1386	4.93077	4.73412	0.085157	4.9532	4.87396	
19	0.18	6.13889	4.93102	4.7343	0.084337	4.95303	4.8731	
20	0.19	6.13935	4.93135	4.73473	0.083425	4.95263	4.87218	
21	0.2	6.13997	4.93166	4.73531	0.0833959	4.95242	4.87223	
22	0.21	6.14041	4.93191	4.73559	0.0832657	4.95225	4.87215	
23	0.22	6.14056	4.93207	4.73551	0.0831758	4.95216	4.87204	
24	0.23	6.14007	4.9321	4.73482	0.082593	4.95215	4.87144	
25	0.24	6.13965	4.93231	4.73412	0.0820904	4.95214	4.87092	
26	0.25	6.1392	4.93245	4.73367	0.081436	4.95213	4.87033	
27	0.26	6.13873	4.9328	4.73316	0.0809821	4.95213	4.86997	
28	0.27	6.13892	4.93328	4.73328	0.0808735	4.95213	4.87002	
29	0.28	6.13906	4.93375	4.73344	0.0810241	4.95201	4.87022	
30	0.29	6.13926	4.93419	4.73379	0.0810241	4.95201	4.87022	
31	0.3	6.13946	4.93462	4.73394	0.0805024	4.95175	4.86984	
32	0.31	6.13928	4.93503	4.73366	0.0801708	4.95175	4.86953	
33	0.32	6.13877	4.93538	4.73308	0.0800751	4.95174	4.86941	
34	0.33	6.13806	4.93572	4.7323	0.0797973	4.95174	4.86912	
35	0.34	6.13741	4.93608	4.73152	0.0794588	4.95174	4.8688	
36	0.35	6.13681	4.93645	4.73079	0.0787548	4.95181	4.86798	
37	0.36	6.136	4.93678	4.72978	0.0786866	4.95181	4.86785	
38	0.37	6.13562	4.93706	4.72915	0.0789394	4.95186	4.86798	
39	0.38	6.13539	4.93742	4.72869	0.0791044	4.95192	4.86797	
40	0.39	6.13607	4.93789	4.72914	0.0791196	4.95201	4.8679	
41	0.4	6.1376	4.9385	4.73043	0.0788258	4.95209	4.86761	
42	0.41	6.13916	4.93919	4.73169	0.0785767	4.95239	4.8673	
43	0.42	6.14078	4.93986	4.73311	0.0785767	4.95239	4.8673	
44	0.43	6.14267	4.94042	4.73476	0.0789239	4.95264	4.86751	
45	0.44	6.14409	4.94107	4.73595	0.0787564	4.95275	4.86718	
46	0.45	6.14505	4.94174	4.7367	0.0784434	4.95288	4.86683	
47	0.46	6.14563	4.94243	4.73724	0.0780306	4.95311	4.86625	
48	0.47	6.14532	4.94315	4.73695	0.0776709	4.9531	4.86575	
49	0.48	6.1449	4.94392	4.73657	0.0776709	4.9531	4.86575	
50	0.49	6.14442	4.94469	4.7363	0.0773209	4.95337	4.8654	
51	0.5	6.14382	4.9454	4.73594	0.0772742	4.95356	4.86526	
52	0.51	6.14341	4.94601	4.73572	0.076853	4.95374	4.86476	
53	0.52	6.14251	4.94647	4.73507	0.0761361	4.95406	4.86387	
54	0.53	6.14166	4.94668	4.73442	0.075776	4.95415	4.8634	
55	0.54	6.14071	4.94672	4.73364	0.0756576	4.95415	4.86315	
56	0.55	6.13952	4.94673	4.73268	0.0755839	4.95422	4.86296	
57	0.56	6.13824	4.94678	4.73157	0.0755309	4.95434	4.86289	
58	0.57	6.13724	4.94675	4.73084	0.0754954	4.9545	4.86284	
59	0.58	6.13647	4.94659	4.73033	0.0756242	4.9549	4.86274	
60	0.59	6.13571	4.9463	4.72971	0.0759349	4.95509	4.86301	
61	0.6	6.13539	4.94584	4.72939	0.0761949	4.9553	4.86319	
62	0.61	6.13578	4.94528	4.72974	0.0762594	4.95551	4.86324	
63	0.62	6.13644	4.94475	4.73042	0.0761029	4.95573	4.86306	
64	0.63	6.13664	4.9442	4.73065	0.0757423	4.95615	4.86277	
65	0.64	6.13652	4.94352	4.73052	0.0757073	4.9563	4.86266	
66	0.65	6.13637	4.94277	4.73031	0.0753644	4.95637	4.86224	
67	0.66	6.13659	4.94218	4.73057	0.0751439	4.95636	4.86197	
68	0.67	6.13714	4.94185	4.73118	0.0749141	4.95672	4.86153	
69	0.68	6.13802	4.94174	4.73209	0.0745243	4.95703	4.86116	
70	0.69	6.13974	4.94167	4.73406	0.0738396	4.95732	4.86045	
71	0.7	6.14161	4.94142	4.73616	0.0730385	4.95761	4.85963	
72	0.71	6.143	4.94107	4.73776	0.0723944	4.95788	4.85901	
73	0.72	6.14364	4.94068	4.7384	0.0715023	4.95816	4.85805	
74	0.73	6.14361	4.94054	4.73837	0.071597	4.95826	4.85808	
75	0.74	6.14371	4.94028	4.73847	0.0713746	4.95825	4.8578	
76	0.75	6.14387	4.94012	4.73879	0.0711554	4.95825	4.85755	
77	0.76	6.14442	4.9401	4.73941	0.0708492	4.95824	4.85717	
78	0.77	6.14498	4.94008	4.74003	0.0707931	4.95824	4.85704	
79	0.78	6.1471	4.94005	4.74223	0.0708768	4.95807	4.85701	
80	0.79	6.14802	4.94016	4.74318	0.0710174	4.95789	4.8571	
81	0.8	6.14817	4.94015	4.74337	0.0711657	4.95774	4.85724	
82	0.81	6.1483	4.94014	4.7436	0.0715668	4.95759	4.85764	
83	0.82	6.14687	4.94018	4.74228	0.0720108	4.95742	4.85812	
84	0.83	6.14613	4.94011	4.74152	0.0724098	4.95726	4.85852	
85	0.839999	6.14418	4.93987	4.73965	0.073372	4.95691	4.85941	
86	0.849999	6.14418	4.93987	4.73965	0.0736943	4.95675	4.85978	
87	0.859999	6.14331	4.93972	4.73883	0.0738258	4.95651	4.86003	
88	0.869999	6.14237	4.93945	4.73794	0.0740229	4.95622	4.86046	
89	0.879999	6.14219	4.93936	4.73781	0.0745367	4.95572	4.86139	
90	0.889999	6.14409	4.93928	4.73985	0.0751702	4.95546	4.86217	
91	0.899999	6.14442	4.93926	4.74028	0.0760615	4.95521	4.86317	
92	0.909999	6.14452	4.93926	4.74042	0.0769328	4.95506	4.86418	
93	0.919999	6.14442	4.93919	4.74035	0.0776172	4.95499	4.86496	
94	0.929999	6.14422	4.93896	4.74034	0.078305	4.95493	4.86572	
95	0.939999	6.14386	4.93865	4.74017	0.0790556	4.95469	4.86673	
96	0.949999	6.14341	4.93835	4.73993	0.079407	4.95453	4.86717	
97	0.959999	6.14303	4.93814	4.73956	0.0798385	4.95434	4.86763	
98	0.969999	6.14265	4.93802	4.73926	0.0800595	4.95419	4.86784	
99	0.979999	6.14284	4.93801	4.73946	0.0799629	4.95412	4.86793	
100	0.989999	6.14358	4.93818	4.74017	0.0796943	4.95421	4.86779	
101	0.999999	6.14499	4.93827	4.74162	0.0795504	4.95431	4.8678	
